<svg xmlns="http://www.w3.org/2000/svg" viewBox="0 0 207 207"><defs><style>.cls-1{fill:none;stroke:#fdba2c;stroke-miterlimit:10;stroke-width:4px;}.cls-2{fill:#fdba2c;}</style></defs><title>Infraestructura</title><g id="Layer_2" data-name="Layer 2"><g id="Layer_1-2" data-name="Layer 1"><circle class="cls-1" cx="103.5" cy="103.5" r="101.5"/><path class="cls-2" d="M127,133.83a1.63,1.63,0,0,1-1.26-.54,1.73,1.73,0,0,1,0-2.51l3.59-3.59a1.78,1.78,0,1,1,2.51,2.51l-3.59,3.59A1.63,1.63,0,0,1,127,133.83Z"/><path class="cls-2" d="M67.23,76.76a14.45,14.45,0,0,1-12-22.25,1.32,1.32,0,0,1,1.44-.72,1.6,1.6,0,0,1,1.44.9l5.2,8.61a6.31,6.31,0,0,0,6.1-3.59h0l-5-9a1.63,1.63,0,0,1,0-1.79,2.29,2.29,0,0,1,1.26-.9,14.73,14.73,0,0,1,11.66,4.13,14.38,14.38,0,0,1-2.15,22.07A12.92,12.92,0,0,1,67.23,76.76ZM56.83,59.36a10.75,10.75,0,1,0,17.94-4.49A10.6,10.6,0,0,0,69,51.82L73,58.64a1.35,1.35,0,0,1,0,1.61l-.36.9a10.22,10.22,0,0,1-9.69,5.56H62a1.83,1.83,0,0,1-1.44-.9Z"/><path class="cls-2" d="M145.83,155.36a14.11,14.11,0,0,1-10-4.13,14.32,14.32,0,1,1,22.07-2.33,2.42,2.42,0,0,1-1.61.9,1.6,1.6,0,0,1-1.44-.9l-5-8.61a6.57,6.57,0,0,0-6.28,3.59l5.2,8.79a1.63,1.63,0,0,1,0,1.79,1.83,1.83,0,0,1-1.44.9Zm0-25.12a10,10,0,0,0-5.92,1.79,10.68,10.68,0,0,0-1.79,16.51,10.6,10.6,0,0,0,5.74,3.05l-3.95-6.82a1.35,1.35,0,0,1,0-1.61l.36-.9A9.94,9.94,0,0,1,150,136.7h.9a1.83,1.83,0,0,1,1.44.9l3.77,6.46a10.93,10.93,0,0,0-4.13-11.84A10.74,10.74,0,0,0,145.83,130.24Z"/><path class="cls-2" d="M122.68,128.08a1.63,1.63,0,0,1-1.26-.54,1.73,1.73,0,0,1,0-2.51l2.87-2.87a1.78,1.78,0,0,1,2.51,2.51l-2.87,2.87A1.63,1.63,0,0,1,122.68,128.08Z"/><path class="cls-2" d="M142.06,108.17a4.89,4.89,0,0,1-3.77-1.61L132,100.27a4,4,0,0,1-1.08-2.69A2.89,2.89,0,0,1,132,95.25,3.61,3.61,0,0,0,128.78,94a13.64,13.64,0,0,1-2.51-.18,12.56,12.56,0,0,1-7-3.59l-8.79-8.79a1.73,1.73,0,0,1,0-2.51c3.59-3.59,3.77-9,.36-12.38-7.18-7.18-11.3-7.18-19.2-7.18H89.31a1.75,1.75,0,0,1-1.79-1.44,1.63,1.63,0,0,1,1.08-2c15.43-7,26-7.9,36.43-3.05,4.84,2.15,6.64,3.95,10.41,7.72l6.46,6.46a12.56,12.56,0,0,1,3.59,7,7.93,7.93,0,0,1,.36,2.69c0,1.44,0,1.79,1.44,3.05a4.51,4.51,0,0,1,2.51-1.08h0a3.54,3.54,0,0,1,2.51,1.08l6.28,6.28a5.16,5.16,0,0,1,1.61,3.77,4.89,4.89,0,0,1-1.61,3.77l-12.74,12.74A4.51,4.51,0,0,1,142.06,108.17Zm-7.54-10.59,6.28,6.28a1.73,1.73,0,0,0,2.51,0l12.74-12.74a1.73,1.73,0,0,0,0-2.51l-6.28-6.28a3,3,0,0,1-2.51,1.08,4,4,0,0,1-2.69-1.08,6.6,6.6,0,0,1-2.33-5.56,10.3,10.3,0,0,0-.18-2.15,8.42,8.42,0,0,0-2.51-5l-6.46-6.46c-3.77-3.77-5.2-5.2-9.51-7-7.54-3.41-15.07-3.59-25.3-.36,4.84.54,9.15,2.33,14.89,7.9a11.85,11.85,0,0,1,.72,16l7.72,7.72a8,8,0,0,0,5,2.51,10.3,10.3,0,0,0,2.15.18,6.6,6.6,0,0,1,5.56,2.33,4,4,0,0,1,1.08,2.69A2.5,2.5,0,0,1,134.52,97.58Z"/><path id="SVGCleanerId_0" data-name="SVGCleanerId 0" class="cls-2" d="M62.21,155.72a7.71,7.71,0,0,1-5-2l-2.51-2.51a7.19,7.19,0,0,1-2.15-5.2,7.6,7.6,0,0,1,2.15-5.38L110.3,78.56a1.73,1.73,0,0,1,2.51,0L123,88.79a1.73,1.73,0,0,1,0,2.51L67.41,153.56A7.49,7.49,0,0,1,62.21,155.72Zm49.53-73.21L57.37,143.34a3.82,3.82,0,0,0-1.26,2.87,3.54,3.54,0,0,0,1.08,2.51l2.51,2.33a3.69,3.69,0,0,0,5.2-.18L119.27,90Z"/><path class="cls-2" d="M62.21,145.31a1.63,1.63,0,0,1-1.26-.54L57.19,141a1.78,1.78,0,0,1,2.51-2.51l3.77,3.77a1.73,1.73,0,0,1,0,2.51A1.63,1.63,0,0,1,62.21,145.31Z"/><path class="cls-2" d="M67.23,140.29a1.63,1.63,0,0,1-1.26-.54L62.21,136a1.78,1.78,0,0,1,2.51-2.51l3.77,3.77a1.73,1.73,0,0,1,0,2.51A1.63,1.63,0,0,1,67.23,140.29Z"/><path id="SVGCleanerId_0-2" data-name="SVGCleanerId 0" class="cls-2" d="M62.21,155.72a7.71,7.71,0,0,1-5-2l-2.51-2.51a7.19,7.19,0,0,1-2.15-5.2,7.6,7.6,0,0,1,2.15-5.38L110.3,78.56a1.73,1.73,0,0,1,2.51,0L123,88.79a1.73,1.73,0,0,1,0,2.51L67.41,153.56A7.49,7.49,0,0,1,62.21,155.72Zm49.53-73.21L57.37,143.34a3.82,3.82,0,0,0-1.26,2.87,3.54,3.54,0,0,0,1.08,2.51l2.51,2.33a3.69,3.69,0,0,0,5.2-.18L119.27,90Z"/><path id="SVGCleanerId_0-3" data-name="SVGCleanerId 0" class="cls-2" d="M62.21,155.72a7.71,7.71,0,0,1-5-2l-2.51-2.51a7.19,7.19,0,0,1-2.15-5.2,7.6,7.6,0,0,1,2.15-5.38L110.3,78.56a1.73,1.73,0,0,1,2.51,0L123,88.79a1.73,1.73,0,0,1,0,2.51L67.41,153.56A7.49,7.49,0,0,1,62.21,155.72Zm49.53-73.21L57.37,143.34a3.82,3.82,0,0,0-1.26,2.87,3.54,3.54,0,0,0,1.08,2.51l2.51,2.33a3.69,3.69,0,0,0,5.2-.18L119.27,90Z"/><path class="cls-2" d="M95.41,99.91a1.63,1.63,0,0,1-1.26-.54l-7.9-7.72A77.9,77.9,0,0,0,66.34,76.76a1.35,1.35,0,0,1-.9-1.26A2.89,2.89,0,0,1,66,73.89l.18-.18a1.28,1.28,0,0,1,1.08-.54A10.82,10.82,0,0,0,77.82,62.59a1.63,1.63,0,0,1,.54-1.26l.18-.18a2.89,2.89,0,0,1,1.61-.54,1.35,1.35,0,0,1,1.26.9A77.9,77.9,0,0,0,96.3,81.43l7.36,7.36a1.73,1.73,0,0,1,0,2.51l-7.18,8.07a1.53,1.53,0,0,1-1.08.54Zm-23.15-24A78.87,78.87,0,0,1,88.77,89.15l6.46,6.46,4.84-5.38-6.28-6.28a83.91,83.91,0,0,1-13.1-16.51,14.13,14.13,0,0,1-5.56,7A21.42,21.42,0,0,1,72.26,75.87Z"/><path class="cls-2" d="M133.09,142.8h-.18a1.51,1.51,0,0,1-1.26-.72c-6.46-9.69-11.3-16.33-15.07-20.1L104,109.42a1.73,1.73,0,0,1,0-2.51l7.18-8.07a1.73,1.73,0,0,1,2.51,0l12.92,12.92c3.77,3.77,10.23,8.61,20.1,15.07a1.35,1.35,0,0,1,.72,1.26,2,2,0,0,1-.54,1.44l-.18.18a1.63,1.63,0,0,1-1.26.54,10.37,10.37,0,0,0-5.74,1.79,11.22,11.22,0,0,0-4.67,9,1.63,1.63,0,0,1-.54,1.26l-.18.18A2.09,2.09,0,0,1,133.09,142.8ZM108,108.17l11.3,11.3c3.41,3.41,7.72,9,13.1,16.87a14.36,14.36,0,0,1,5.74-7.36,13.59,13.59,0,0,1,3.23-1.61c-8.07-5.38-13.64-9.69-16.87-13.1L112.81,102.6Z"/></g></g></svg>