<svg xmlns="http://www.w3.org/2000/svg" viewBox="0 0 207 207"><defs><style>.cls-1{fill:none;stroke:#fff;stroke-miterlimit:10;stroke-width:4px;}.cls-2{fill:#fff;}</style></defs><title>Practicas Efectivas</title><g id="Layer_2" data-name="Layer 2"><g id="Layer_1-2" data-name="Layer 1"><circle class="cls-1" cx="103.5" cy="103.5" r="101.5"/><path class="cls-2" d="M110.82,94.7a2,2,0,0,0,1.72,1,2,2,0,0,0,.87-.2c.11-.05,11.47-5.47,17.07-7.13a1.79,1.79,0,0,0,1.26-2.27,2,2,0,0,0-2.42-1.18c-5.9,1.75-17.18,7.13-17.66,7.36a1.76,1.76,0,0,0-.85,2.44Zm0,0"/><path class="cls-2" d="M112.54,74a2,2,0,0,0,.87-.2c.11-.05,11.47-5.47,17.07-7.13a1.79,1.79,0,0,0,1.26-2.27,2,2,0,0,0-2.42-1.18c-5.9,1.75-17.18,7.13-17.66,7.36a1.76,1.76,0,0,0-.85,2.44,2,2,0,0,0,1.72,1Zm0,0"/><path class="cls-2" d="M158.86,70.33a1.87,1.87,0,0,0-1.93,1.81V142.8a5.63,5.63,0,0,1-5.79,5.44H104.82v-4.17A60.13,60.13,0,0,1,122.19,141c16.81,0,28.22,3.49,28.34,3.53a2,2,0,0,0,1.74-.25,1.78,1.78,0,0,0,.8-1.47V63.08a1.84,1.84,0,0,0-1.51-1.77s-1.51-.32-4.1-.76A1.93,1.93,0,0,0,145.21,62a1.82,1.82,0,0,0,1.55,2.11l2.45.44v75.84a115.63,115.63,0,0,0-27-3A64.06,64.06,0,0,0,103,140.83a47.66,47.66,0,0,0-17.44-3.47,138.09,138.09,0,0,0-28.94,3.1v-76a134.84,134.84,0,0,1,28.94-3.21,44.17,44.17,0,0,1,15.44,3v71.3a1.79,1.79,0,0,0,1,1.58,2,2,0,0,0,1.95,0c.19-.11,19.31-10.83,36.28-16.14a1.83,1.83,0,0,0,1.32-1.72V45a1.78,1.78,0,0,0-.83-1.49,2,2,0,0,0-1.78-.21c-15.44,5.44-31.06,14.56-31.22,14.66a1.75,1.75,0,0,0-.61,2.5,2,2,0,0,0,2.66.58,211.12,211.12,0,0,1,27.92-13.38v70.33c-13.17,4.3-26.93,11.31-32.81,14.46V63.08a1.81,1.81,0,0,0-1.07-1.62,47,47,0,0,0-18.23-3.81,132.93,132.93,0,0,0-31.41,3.69,1.83,1.83,0,0,0-1.4,1.74V142.8a1.78,1.78,0,0,0,.77,1.45,2,2,0,0,0,1.16.37,2,2,0,0,0,.53-.07A131.51,131.51,0,0,1,85.53,141,44.06,44.06,0,0,1,101,144v4.26H54.65a5.63,5.63,0,0,1-5.79-5.44V72.14a1.93,1.93,0,0,0-3.86,0V142.8c0,5,4.33,9.06,9.65,9.06h96.49c5.32,0,9.65-4.06,9.65-9.06V72.14a1.87,1.87,0,0,0-1.93-1.81Zm0,0"/><path class="cls-2" d="M110.82,83.83a2,2,0,0,0,1.72,1,2,2,0,0,0,.87-.2c.11-.05,11.47-5.47,17.07-7.13a1.79,1.79,0,0,0,1.26-2.27A2,2,0,0,0,129.33,74c-5.9,1.75-17.18,7.13-17.66,7.36a1.76,1.76,0,0,0-.85,2.44Zm0,0"/><path class="cls-2" d="M110.82,105.57a2,2,0,0,0,1.72,1,2,2,0,0,0,.87-.2c.11-.05,11.47-5.47,17.07-7.13A1.79,1.79,0,0,0,131.75,97a2,2,0,0,0-2.42-1.18c-5.9,1.75-17.18,7.13-17.66,7.36a1.76,1.76,0,0,0-.85,2.44Zm0,0"/><path class="cls-2" d="M91.76,76.77c-11.92-2.62-25.46.72-26,.86a1.8,1.8,0,0,0-1.36,2.22,1.91,1.91,0,0,0,1.86,1.34,2.09,2.09,0,0,0,.5-.06c.13,0,13.17-3.25,24.15-.84a1.94,1.94,0,0,0,2.32-1.35,1.81,1.81,0,0,0-1.44-2.18Zm0,0"/><path class="cls-2" d="M91.76,87.64c-11.92-2.62-25.46.72-26,.86a1.8,1.8,0,0,0-1.36,2.22,1.91,1.91,0,0,0,1.86,1.34,2,2,0,0,0,.5-.06c.13,0,13.17-3.25,24.15-.83a1.94,1.94,0,0,0,2.32-1.35,1.81,1.81,0,0,0-1.44-2.18Zm0,0"/><path class="cls-2" d="M110.82,116.44a2,2,0,0,0,1.72,1,2,2,0,0,0,.87-.2c.11-.05,11.47-5.47,17.07-7.13a1.79,1.79,0,0,0,1.26-2.27,2,2,0,0,0-2.42-1.18c-5.9,1.75-17.18,7.13-17.66,7.36a1.76,1.76,0,0,0-.85,2.44Zm0,0"/><path class="cls-2" d="M91.76,98.51c-11.92-2.62-25.46.72-26,.86a1.8,1.8,0,0,0-1.36,2.22,1.92,1.92,0,0,0,1.86,1.34,2.09,2.09,0,0,0,.5-.06c.13,0,13.17-3.25,24.15-.84a1.94,1.94,0,0,0,2.32-1.35,1.81,1.81,0,0,0-1.44-2.18Zm0,0"/><path class="cls-2" d="M91.76,120.26c-11.92-2.62-25.46.72-26,.86a1.8,1.8,0,0,0-1.36,2.22,1.92,1.92,0,0,0,1.86,1.34,2.09,2.09,0,0,0,.5-.06c.13,0,13.17-3.25,24.15-.84a1.94,1.94,0,0,0,2.32-1.35,1.81,1.81,0,0,0-1.44-2.18Zm0,0"/><path class="cls-2" d="M91.76,109.39c-11.92-2.63-25.46.72-26,.86a1.8,1.8,0,0,0-1.36,2.22,1.92,1.92,0,0,0,1.86,1.34,2.09,2.09,0,0,0,.5-.06c.13,0,13.17-3.25,24.15-.84a1.94,1.94,0,0,0,2.32-1.35,1.81,1.81,0,0,0-1.44-2.17Zm0,0"/></g></g></svg>