<?xml version="1.0" encoding="utf-8"?>
<!-- Generator: Adobe Illustrator 23.0.3, SVG Export Plug-In . SVG Version: 6.00 Build 0)  -->
<svg version="1.1" id="Capa_1" xmlns="http://www.w3.org/2000/svg" xmlns:xlink="http://www.w3.org/1999/xlink" x="0px" y="0px"
	 viewBox="0 0 94 96" style="enable-background:new 0 0 94 96;" xml:space="preserve">
<style type="text/css">
	.st0{fill:#AC1A40;}
	.st1{fill:#FFFFFF;}
</style>
<g>
	<g>
		<g>
			<g>
				<g>
					<path class="st0" d="M76.33,28.18c0.99,0,1.79-0.8,1.79-1.79V6.87c0-2.97-2.41-5.38-5.38-5.38H7.42
						c-2.97,0-5.38,2.41-5.38,5.38v81.11c0,2.97,2.41,5.38,5.38,5.38h65.32c2.97,0,5.38-2.41,5.38-5.38V74.76
						c0-0.99-0.8-1.79-1.79-1.79c-0.99,0-1.79,0.8-1.79,1.79v13.22c0,0.99-0.8,1.79-1.79,1.79H7.42c-0.99,0-1.79-0.8-1.79-1.79V6.87
						c0-0.99,0.8-1.79,1.79-1.79h65.32c0.99,0,1.79,0.8,1.79,1.79v19.51C74.53,27.37,75.34,28.18,76.33,28.18z"/>
				</g>
			</g>
			<g>
				<g>
					<path class="st0" d="M40.08,11.18c-9.1,0-16.51,7.41-16.51,16.51c0,4.72,1.99,8.99,5.18,12c0.06,0.06,0.12,0.12,0.19,0.18
						c2.94,2.69,6.85,4.33,11.13,4.33s8.2-1.64,11.13-4.33c0.07-0.06,0.13-0.12,0.19-0.18c3.19-3.01,5.18-7.28,5.18-12
						C56.59,18.58,49.18,11.18,40.08,11.18z M40.08,40.6c-2.93,0-5.63-0.98-7.8-2.63c1.58-2.8,4.52-4.55,7.8-4.55
						s6.23,1.75,7.8,4.55C45.71,39.62,43.01,40.6,40.08,40.6z M37.21,26.97V25.8c0-1.58,1.29-2.87,2.87-2.87s2.87,1.29,2.87,2.87
						v1.17c0,1.58-1.29,2.87-2.87,2.87S37.21,28.55,37.21,26.97z M50.48,35.34c-1.32-1.96-3.16-3.49-5.29-4.43
						c0.85-1.09,1.35-2.46,1.35-3.95V25.8c0-3.56-2.9-6.46-6.46-6.46c-3.56,0-6.46,2.9-6.46,6.46v1.17c0,1.48,0.5,2.85,1.35,3.95
						c-2.13,0.94-3.96,2.47-5.29,4.43c-1.58-2.14-2.52-4.79-2.52-7.66c0-7.12,5.8-12.92,12.92-12.92S53,20.56,53,27.68
						C53,30.55,52.06,33.2,50.48,35.34z"/>
				</g>
			</g>
			<g>
				<g>
					<path class="st0" d="M49.77,80.08h-9.69c-0.99,0-1.79,0.8-1.79,1.79c0,0.99,0.8,1.79,1.79,1.79h9.69c0.99,0,1.79-0.8,1.79-1.79
						C51.56,80.88,50.76,80.08,49.77,80.08z"/>
				</g>
			</g>
			<g>
				<g>
					<path class="st0" d="M49.77,70.03H24.29c-0.99,0-1.79,0.8-1.79,1.79c0,0.99,0.8,1.79,1.79,1.79h25.48
						c0.99,0,1.79-0.8,1.79-1.79C51.56,70.84,50.76,70.03,49.77,70.03z"/>
				</g>
			</g>
			<g>
				<g>
					<path class="st0" d="M49.77,59.98H24.29c-0.99,0-1.79,0.8-1.79,1.79s0.8,1.79,1.79,1.79h25.48c0.99,0,1.79-0.8,1.79-1.79
						S50.76,59.98,49.77,59.98z"/>
				</g>
			</g>
			<g>
				<g>
					<path class="st0" d="M17.89,50.46c-0.33-0.33-0.8-0.53-1.27-0.53c-0.47,0-0.94,0.19-1.27,0.53c-0.33,0.33-0.53,0.8-0.53,1.27
						s0.19,0.93,0.53,1.27c0.34,0.33,0.8,0.53,1.27,0.53c0.47,0,0.93-0.19,1.27-0.53c0.33-0.33,0.53-0.8,0.53-1.27
						S18.23,50.79,17.89,50.46z"/>
				</g>
			</g>
			<g>
				<g>
					<path class="st0" d="M17.89,60.51c-0.34-0.33-0.8-0.53-1.27-0.53c-0.47,0-0.93,0.19-1.27,0.53c-0.33,0.33-0.53,0.8-0.53,1.27
						s0.19,0.93,0.53,1.27c0.34,0.33,0.8,0.53,1.27,0.53c0.47,0,0.93-0.19,1.27-0.53c0.33-0.33,0.53-0.8,0.53-1.27
						S18.23,60.84,17.89,60.51z"/>
				</g>
			</g>
			<g>
				<g>
					<path class="st0" d="M17.89,70.56c-0.34-0.33-0.8-0.53-1.27-0.53c-0.47,0-0.93,0.19-1.27,0.53c-0.33,0.33-0.53,0.8-0.53,1.27
						s0.19,0.93,0.53,1.27c0.33,0.33,0.8,0.53,1.27,0.53c0.47,0,0.94-0.19,1.27-0.53c0.33-0.33,0.53-0.8,0.53-1.27
						S18.23,70.89,17.89,70.56z"/>
				</g>
			</g>
			<g>
				<g>
					<path class="st0" d="M49.77,49.93H24.29c-0.99,0-1.79,0.8-1.79,1.79s0.8,1.79,1.79,1.79h25.48c0.99,0,1.79-0.8,1.79-1.79
						S50.76,49.93,49.77,49.93z"/>
				</g>
			</g>
		</g>
	</g>
	<g>
		<g>
			<g>
				<path class="st1" d="M79.67,55.24c0.16-0.21,0.42-0.31,0.68-0.26l11.61,0.95L69.11,29.13l-4.83,34.88l9.93-7.56
					c0.13-0.12,0.3-0.17,0.47-0.16h0.21c0.26,0.07,0.46,0.27,0.53,0.53l4.1,13.92l4.04-1.21l-4.04-13.55
					C79.45,55.72,79.51,55.45,79.67,55.24z"/>
			</g>
		</g>
	</g>
</g>
</svg>
