<?xml version="1.0" encoding="utf-8"?>
<!-- Generator: Adobe Illustrator 23.0.3, SVG Export Plug-In . SVG Version: 6.00 Build 0)  -->
<svg version="1.1" id="Capa_1" xmlns="http://www.w3.org/2000/svg" xmlns:xlink="http://www.w3.org/1999/xlink" x="0px" y="0px"
	 viewBox="0 0 501.84 507.73" style="enable-background:new 0 0 501.84 507.73;" xml:space="preserve">
<style type="text/css">
	.st0{fill:#FFFFFF;}
	.st1{fill:#AC1A40;}
</style>
<g>
	<path class="st0" d="M303.29,209.24l-71.97,67.98l-34.54-35.53c-3.83-3.94-10.13-4.03-14.07-0.2c-3.94,3.83-4.03,10.13-0.2,14.08
		l41.43,42.53c3.85,3.87,10.07,4,14.08,0.3l79.16-74.66c1.92-1.81,3.05-4.32,3.12-6.96c0.07-2.64-0.9-5.2-2.72-7.12
		C313.72,205.63,307.36,205.46,303.29,209.24z"/>
	<path class="st0" d="M249.89,104.62c-82.25,0-149.13,66.88-149.13,149.13c0,82.26,66.88,149.14,149.13,149.14
		c82.26,0,149.14-66.88,149.14-149.14C399.03,171.5,332.14,104.62,249.89,104.62z M249.89,382.93c-71.27,0-129.17-58-129.17-129.17
		s57.9-129.17,129.17-129.17c71.34,0,129.17,57.83,129.17,129.17S321.23,382.93,249.89,382.93z"/>
	<path class="st1" d="M455.12,198.85l3.29-59.2c0.23-3.97-1.93-7.71-5.49-9.48l-52.71-26.65l-26.65-52.71
		c-1.81-3.53-5.52-5.68-9.48-5.49l-59.3,3.2l-49.41-32.65c-3.33-2.2-7.65-2.2-10.98,0l-49.41,32.65l-59.19-3.29
		c-3.98-0.23-7.71,1.93-9.48,5.49l-26.66,52.71l-52.7,26.65c-3.53,1.81-5.68,5.52-5.49,9.48l3.29,59.2l-32.64,49.41
		c-2.2,3.33-2.2,7.65,0,10.98l32.54,49.51l-3.29,59.2c-0.23,3.97,1.93,7.71,5.49,9.48l52.71,26.65l26.65,52.71
		c1.81,3.53,5.52,5.68,9.48,5.49l59.2-3.29l49.41,32.64c3.31,2.27,7.67,2.27,10.98,0l49.41-32.64l59.2,3.29
		c3.97,0.23,7.7-1.93,9.48-5.49l26.65-52.71l52.71-26.65c3.53-1.81,5.68-5.52,5.49-9.48l-3.29-59.2l32.64-49.41
		c2.2-3.33,2.2-7.65,0-10.98L455.12,198.85z M436.56,300.47c-1.22,1.79-1.78,3.93-1.59,6.09l3.09,56l-49.81,25.15
		c-1.9,0.95-3.44,2.5-4.39,4.39l-25.16,49.81l-56-3.09c-2.14-0.08-4.26,0.48-6.09,1.59l-46.72,30.85l-46.71-30.85
		c-1.62-1.1-3.53-1.69-5.49-1.7h-0.5l-56,3.1l-25.15-49.81c-0.95-1.9-2.49-3.44-4.39-4.39l-49.91-25.06l3.1-56
		c0.08-2.14-0.48-4.26-1.6-6.09l-30.84-46.72l30.84-46.72c1.22-1.78,1.79-3.93,1.6-6.09l-3.1-56l49.81-25.15
		c1.9-0.95,3.44-2.49,4.39-4.39l25.15-49.81l56,3.1c2.14,0.07,4.26-0.48,6.09-1.6l46.71-30.84l46.72,30.84
		c1.79,1.22,3.94,1.79,6.09,1.6l56-3.1l25.16,49.81c0.95,1.9,2.49,3.44,4.39,4.39l49.81,25.15l-3.09,56
		c-0.08,2.14,0.48,4.26,1.59,6.09l30.85,46.72L436.56,300.47z"/>
</g>
</svg>
