<?xml version="1.0" encoding="utf-8"?>
<!-- Generator: Adobe Illustrator 23.0.3, SVG Export Plug-In . SVG Version: 6.00 Build 0)  -->
<svg version="1.1" id="Capa_1" xmlns="http://www.w3.org/2000/svg" xmlns:xlink="http://www.w3.org/1999/xlink" x="0px" y="0px"
	 viewBox="0 0 54 54" style="enable-background:new 0 0 54 54;" xml:space="preserve">
<style type="text/css">
	.st0{fill:#AC1A40;}
	.st1{fill:#EBB83E;}
</style>
<g>
	<g>
		<g>
			<g>
				<path class="st0" d="M35.8,32.81c-0.55,0-1,0.45-1,1v6.87c0,2.74-2.23,4.98-4.98,4.98H19.09c-0.55,0-0.99,0.45-1,0.99l0,1.98
					l-2.38-2.38c-0.15-0.35-0.51-0.6-0.91-0.6H8.34c-2.74,0-4.98-2.23-4.98-4.98V25.34c0-2.74,2.23-4.98,4.98-4.98h10.05
					c0.55,0,1-0.45,1-1c0-0.55-0.45-1-1-1H8.34c-3.84,0-6.97,3.12-6.97,6.97v15.32c0,3.84,3.12,6.97,6.97,6.97h5.96l4.09,4.09
					c0.19,0.19,0.44,0.29,0.7,0.29c0.13,0,0.26-0.02,0.38-0.08c0.37-0.15,0.61-0.52,0.61-0.92l0-3.38h9.75
					c3.84,0,6.97-3.12,6.97-6.97V33.8C36.8,33.25,36.35,32.81,35.8,32.81z"/>
			</g>
		</g>
	</g>
	<g>
		<g>
			<g>
				<path class="st0" d="M37.86,1.06h-2.52c-7.98,0-14.46,6.49-14.46,14.46s6.49,14.46,14.46,14.46h2.52c1.24,0,2.48-0.16,3.67-0.47
					l3.72,3.72c0.19,0.19,0.44,0.29,0.7,0.29c0.13,0,0.26-0.02,0.38-0.08c0.37-0.15,0.61-0.52,0.61-0.92v-5.76
					c1.58-1.28,2.88-2.89,3.8-4.69c1.04-2.04,1.57-4.25,1.57-6.56C52.32,7.55,45.83,1.06,37.86,1.06z M45.35,25.5
					c-0.25,0.19-0.4,0.48-0.4,0.79v3.84l-2.44-2.43c-0.19-0.19-0.44-0.29-0.7-0.29c-0.1,0-0.2,0.01-0.29,0.04
					C40.34,27.82,39.11,28,37.86,28h-2.52c-6.88,0-12.47-5.6-12.47-12.47s5.6-12.47,12.47-12.47h2.52c6.88,0,12.47,5.6,12.47,12.47
					C50.33,19.48,48.52,23.11,45.35,25.5z"/>
			</g>
		</g>
	</g>
	<g>
		<g>
			<g>
				<path class="st1" d="M41.08,11.95c-0.14-2.08-1.82-3.76-3.91-3.91C35.99,7.96,34.87,8.36,34,9.17
					c-0.85,0.79-1.34,1.92-1.34,3.08c0,0.55,0.45,1,1,1s1-0.45,1-1c0-0.62,0.25-1.2,0.71-1.63c0.46-0.42,1.05-0.64,1.68-0.59
					c1.1,0.08,1.98,0.96,2.06,2.06c0.08,1.11-0.65,2.09-1.73,2.33c-0.87,0.2-1.48,0.95-1.48,1.85v2.39c0,0.55,0.45,1,1,1
					c0.55,0,1-0.45,1-1v-2.31C39.88,15.86,41.22,14.02,41.08,11.95z"/>
			</g>
		</g>
	</g>
	<g>
		<g>
			<g>
				<path class="st1" d="M37.58,21.89c-0.19-0.19-0.44-0.29-0.7-0.29s-0.52,0.11-0.7,0.29s-0.29,0.44-0.29,0.7
					c0,0.26,0.11,0.52,0.29,0.7c0.19,0.19,0.44,0.29,0.7,0.29s0.52-0.11,0.7-0.29c0.19-0.19,0.29-0.44,0.29-0.7
					C37.87,22.33,37.77,22.07,37.58,21.89z"/>
			</g>
		</g>
	</g>
	<g>
		<g>
			<g>
				<path class="st0" d="M28.74,31.91h-21c-0.55,0-1,0.45-1,1c0,0.55,0.45,1,1,1h21c0.55,0,1-0.45,1-1
					C29.73,32.36,29.29,31.91,28.74,31.91z"/>
			</g>
		</g>
	</g>
	<g>
		<g>
			<g>
				<path class="st0" d="M29.44,37.78c-0.18-0.19-0.44-0.29-0.7-0.29c-0.26,0-0.52,0.11-0.7,0.29c-0.19,0.19-0.29,0.44-0.29,0.7
					c0,0.26,0.11,0.52,0.29,0.7c0.19,0.19,0.44,0.29,0.7,0.29c0.26,0,0.52-0.11,0.7-0.29c0.19-0.19,0.29-0.44,0.29-0.7
					C29.73,38.22,29.63,37.96,29.44,37.78z"/>
			</g>
		</g>
	</g>
	<g>
		<g>
			<g>
				<path class="st0" d="M24.82,37.48H7.74c-0.55,0-1,0.45-1,1c0,0.55,0.45,1,1,1h17.08c0.55,0,1-0.45,1-1
					C25.82,37.93,25.37,37.48,24.82,37.48z"/>
			</g>
		</g>
	</g>
	<g>
		<g>
			<g>
				<path class="st0" d="M22.27,26.34H7.74c-0.55,0-1,0.45-1,1s0.45,1,1,1h14.53c0.55,0,1-0.45,1-1S22.82,26.34,22.27,26.34z"/>
			</g>
		</g>
	</g>
</g>
</svg>
